<?xml version="1.0" standalone="no"?>
<!DOCTYPE svg PUBLIC "-//W3C//DTD SVG 20010904//EN"
 "http://www.w3.org/TR/2001/REC-SVG-20010904/DTD/svg10.dtd">
<svg version="1.0" xmlns="http://www.w3.org/2000/svg"
 width="521.000000pt" height="521.000000pt" viewBox="0 0 521.000000 521.000000"
 preserveAspectRatio="xMidYMid meet">
<metadata>
Created by potrace 1.14, written by Peter Selinger 2001-2017
</metadata>
<g transform="translate(0.000000,521.000000) scale(0.100000,-0.100000)"
fill="#000000" stroke="none">
<path d="M2390 5193 c-483 -48 -868 -185 -1251 -444 -507 -344 -880 -867
-1044 -1464 -144 -526 -115 -1105 81 -1612 298 -773 945 -1360 1739 -1578 725
-198 1525 -69 2135 345 196 133 429 347 573 525 172 213 335 501 425 750 48
131 105 360 128 505 21 143 30 486 15 636 -79 784 -510 1493 -1171 1926 -123
81 -382 211 -525 263 -186 68 -436 124 -650 145 -94 9 -377 11 -455 3z m800
-688 c15 -8 40 -29 56 -47 36 -40 431 -975 418 -987 -20 -18 -1658 -701 -1665
-694 -14 16 -398 940 -404 974 -10 53 11 116 53 160 33 34 110 69 707 320 369
155 684 285 700 290 38 10 99 3 135 -16z m330 -2947 c0 -741 -1 -785 -19 -823
-22 -47 -64 -89 -104 -104 -39 -15 -1445 -15 -1484 0 -40 15 -82 57 -104 104
-18 38 -19 82 -19 823 l0 782 865 0 865 0 0 -782z"/>
</g>
</svg>
