<svg width="117" height="117" viewBox="0 0 117 117" fill="none" xmlns="http://www.w3.org/2000/svg">
<path fill-rule="evenodd" clip-rule="evenodd" d="M0.552948 59.3312C0.75473 91.1911 26.6444 116.956 58.5518 116.956C60.5538 116.956 62.5321 116.855 64.4819 116.657C93.7288 113.687 116.552 88.9866 116.552 58.9561C116.552 26.9236 90.5843 0.956116 58.5518 0.956116C26.5193 0.956116 0.551758 26.9236 0.551758 58.9561C0.551758 59.0812 0.552155 59.2063 0.552948 59.3312ZM93.0373 23.859C104.035 36.7531 105.025 52.7286 101.044 66.3594C96.7962 80.9041 85.8091 91.7655 72.1185 96.8929C79.6527 97.3293 86.9992 96.0925 93.6488 93.4417C80.7548 104.439 64.7793 105.429 51.1486 101.448C36.6039 97.2005 25.7424 86.2134 20.615 72.5228C20.1787 80.0571 21.4154 87.4037 24.0663 94.0533C13.0687 81.1592 12.0788 65.1836 16.0596 51.5529C20.3074 37.0082 31.2945 26.1467 44.985 21.0194C37.4508 20.5831 30.1043 21.8197 23.4547 24.4706C36.3487 13.473 52.3243 12.4832 65.955 16.4639C80.4997 20.7117 91.3611 31.6989 96.4885 45.3893C96.9249 37.8552 95.6882 30.5087 93.0373 23.859Z" fill="white"/>
</svg>
