<svg width="101" height="100" viewBox="0 0 101 100" fill="none" xmlns="http://www.w3.org/2000/svg">
<path d="M76.1997 76.0272C52.6287 99.5982 21.8648 107.05 7.48647 92.6721C-6.89183 78.2938 0.560313 47.5298 24.1313 23.9588C47.7023 0.387843 78.4662 -7.0643 92.8445 7.314C107.223 21.6923 99.7707 52.4563 76.1997 76.0272Z" fill="#06B6D4"/>
<mask id="mask0_31_61" style="mask-type:alpha" maskUnits="userSpaceOnUse" x="0" y="-1" width="101" height="101">
<path d="M76.1997 76.0272C52.6287 99.5982 21.8648 107.05 7.48647 92.6721C-6.89183 78.2938 0.560313 47.5298 24.1313 23.9588C47.7023 0.387843 78.4662 -7.0643 92.8445 7.314C107.223 21.6923 99.7707 52.4563 76.1997 76.0272Z" fill="#06B6D4"/>
</mask>
<g mask="url(#mask0_31_61)">
<path d="M30.4816 -0.354141V99.6459" stroke="black" stroke-opacity="0.8" stroke-width="10"/>
<path d="M70.4816 -0.354141V99.6459" stroke="black" stroke-opacity="0.8" stroke-width="10"/>
</g>
</svg>
