<svg width="101" height="101" viewBox="0 0 101 101" fill="none" xmlns="http://www.w3.org/2000/svg">
<path d="M76.1997 76.9367C52.6287 100.508 21.8648 107.96 7.48647 93.5815C-6.89183 79.2032 0.560313 48.4392 24.1313 24.8683C47.7023 1.29728 78.4662 -6.15486 92.8445 8.22344C107.223 22.6017 99.7707 53.3657 76.1997 76.9367Z" fill="#06B6D4"/>
<mask id="mask0_31_57" style="mask-type:alpha" maskUnits="userSpaceOnUse" x="0" y="0" width="101" height="101">
<path d="M76.1997 76.9367C52.6287 100.508 21.8648 107.96 7.48647 93.5815C-6.89183 79.2032 0.560313 48.4392 24.1313 24.8683C47.7023 1.29728 78.4662 -6.15486 92.8445 8.22344C107.223 22.6017 99.7707 53.3657 76.1997 76.9367Z" fill="#06B6D4"/>
</mask>
<g mask="url(#mask0_31_57)">
<path d="M50.4816 1.34274V101.343" stroke="black" stroke-opacity="0.8" stroke-width="10"/>
</g>
</svg>
