<svg width="101" height="101" viewBox="0 0 101 101" fill="none" xmlns="http://www.w3.org/2000/svg">
<path d="M76.8836 76.7241C53.3127 100.295 22.5487 107.747 8.1704 93.369C-6.2079 78.9907 1.24424 48.2267 24.8152 24.6557C48.3862 1.08474 79.1502 -6.3674 93.5285 8.0109C107.907 22.3892 100.455 53.1532 76.8836 76.7241Z" fill="#06B6D4"/>
<path d="M43.4761 60.6899H36.1801V59.9459L38.4361 58.1699V43.6259L35.9401 42.7859L36.4201 41.8259H43.7161V42.5699L41.4361 44.3459V58.8659L43.9561 59.7299L43.4761 60.6899ZM53.8823 60.6899H46.5863V59.9459L48.8423 58.1699V43.6259L46.3463 42.7859L46.8263 41.8259H54.1223V42.5699L51.8423 44.3459V58.8659L54.3623 59.7299L53.8823 60.6899ZM64.2886 60.6899H56.9926V59.9459L59.2486 58.1699V43.6259L56.7526 42.7859L57.2326 41.8259H64.5286V42.5699L62.2486 44.3459V58.8659L64.7686 59.7299L64.2886 60.6899Z" fill="black"/>
</svg>
