<svg width="101" height="101" viewBox="0 0 101 101" fill="none" xmlns="http://www.w3.org/2000/svg">
<path d="M76.8836 76.9367C53.3127 100.508 22.5487 107.96 8.1704 93.5815C-6.2079 79.2032 1.24424 48.4393 24.8152 24.8683C48.3862 1.2973 79.1502 -6.15484 93.5285 8.22345C107.907 22.6017 100.455 53.3657 76.8836 76.9367Z" fill="#06B6D4"/>
<path d="M49.1792 60.9025H41.8832V60.1585L44.1392 58.3825V43.8385L41.6432 42.9985L42.1232 42.0385H49.4192V42.7825L47.1392 44.5585V59.0785L49.6592 59.9425L49.1792 60.9025ZM59.5854 60.9025H52.2894V60.1585L54.5454 58.3825V43.8385L52.0494 42.9985L52.5294 42.0385H59.8254V42.7825L57.5454 44.5585V59.0785L60.0654 59.9425L59.5854 60.9025Z" fill="black"/>
</svg>
