<svg width="101" height="100" viewBox="0 0 101 100" fill="none" xmlns="http://www.w3.org/2000/svg">
<path d="M76.1997 76.0277C52.6287 99.5987 21.8648 107.051 7.48647 92.6725C-6.89183 78.2942 0.560313 47.5302 24.1313 23.9593C47.7023 0.388286 78.4662 -7.06385 92.8445 7.31444C107.223 21.6927 99.7707 52.4567 76.1997 76.0277Z" fill="url(#paint0_linear_51_6)"/>
<path fill-rule="evenodd" clip-rule="evenodd" d="M37.2187 93.7216C48.6222 90.9593 61.4197 83.7366 72.6642 72.4921C83.9087 61.2476 91.1313 48.4502 93.8936 37.0467C96.68 25.544 94.7972 16.3382 89.309 10.85C83.8208 5.36174 74.615 3.47897 63.1123 6.26534C51.7088 9.02767 38.9113 16.2503 27.6668 27.4948C16.4223 38.7393 9.1997 51.5368 6.43736 62.9403C3.651 74.4429 5.53377 83.6487 11.022 89.137C16.5102 94.6252 25.716 96.508 37.2187 93.7216ZM7.48647 92.6725C21.8648 107.051 52.6287 99.5987 76.1997 76.0277C99.7707 52.4567 107.223 21.6927 92.8445 7.31444C78.4662 -7.06385 47.7023 0.388287 24.1313 23.9593C0.560314 47.5302 -6.89183 78.2942 7.48647 92.6725Z" fill="white" style="mix-blend-mode:overlay"/>
<path d="M63.1826 63.0106C51.3971 74.7961 36.0151 78.5221 28.826 71.333C21.6368 64.1438 25.3629 48.7619 37.1484 36.9764C48.9339 25.1909 64.3159 21.4648 71.505 28.654C78.6942 35.8431 74.9681 51.2251 63.1826 63.0106Z" fill="white" style="mix-blend-mode:overlay"/>
<defs>
<linearGradient id="paint0_linear_51_6" x1="50.1655" y1="-0.00653076" x2="50.1655" y2="99.9935" gradientUnits="userSpaceOnUse">
<stop stop-color="#0891B2"/>
<stop offset="1" stop-color="#033E4C"/>
</linearGradient>
</defs>
</svg>
