<svg width="101" height="101" viewBox="0 0 101 101" fill="none" xmlns="http://www.w3.org/2000/svg">
<rect x="50.8494" y="0.689926" width="70.7107" height="70.7107" transform="rotate(45 50.8494 0.689926)" fill="#EAB308"/>
<path d="M43.6285 60.6632H36.3325V59.9192L38.5885 58.1432V43.5992L36.0925 42.7592L36.5725 41.7992H43.8685V42.5432L41.5885 44.3192V58.8392L44.1085 59.7032L43.6285 60.6632ZM54.0348 60.6632H46.7388V59.9192L48.9948 58.1432V43.5992L46.4988 42.7592L46.9788 41.7992H54.2748V42.5432L51.9948 44.3192V58.8392L54.5148 59.7032L54.0348 60.6632ZM64.441 60.6632H57.145V59.9192L59.401 58.1432V43.5992L56.905 42.7592L57.385 41.7992H64.681V42.5432L62.401 44.3192V58.8392L64.921 59.7032L64.441 60.6632Z" fill="black"/>
</svg>
