<svg width="117" height="117" viewBox="0 0 117 117" fill="none" xmlns="http://www.w3.org/2000/svg">
<path fill-rule="evenodd" clip-rule="evenodd" d="M0.882416 58.7137C1.0842 90.5735 26.9739 116.339 58.8812 116.339C60.8833 116.339 62.8616 116.237 64.8114 116.039C94.0583 113.069 116.881 88.3691 116.881 58.3386C116.881 26.306 90.9138 0.338562 58.8812 0.338562C26.8488 0.338562 0.881226 26.306 0.881226 58.3386C0.881226 58.4637 0.881622 58.5887 0.882416 58.7137ZM93.3668 23.2415C104.364 36.1355 105.354 52.1111 101.373 65.7418C97.1257 80.2865 86.1385 91.1479 72.448 96.2754C79.9821 96.7117 87.3287 95.475 93.9783 92.8241C81.0843 103.822 65.1087 104.812 51.478 100.831C36.9333 96.5829 26.0719 85.5958 20.9445 71.9053C20.5081 79.4395 21.7449 86.7861 24.3958 93.4357C13.3981 80.5417 12.4083 64.566 16.3891 50.9353C20.6368 36.3906 31.624 25.5292 45.3145 20.4019C37.7803 19.9655 30.4337 21.2021 23.7841 23.853C36.6781 12.8554 52.6537 11.8656 66.2845 15.8464C80.8292 20.0941 91.6906 31.0813 96.818 44.7718C97.2543 37.2376 96.0177 29.8911 93.3668 23.2415Z" fill="white"/>
</svg>
