<svg width="101" height="101" viewBox="0 0 101 101" fill="none" xmlns="http://www.w3.org/2000/svg">
<path d="M50.8494 93.9911L100.849 7.38861H0.849411L50.8494 93.9911Z" fill="#D946EF"/>
<path d="M43.8525 60.3619H36.5565V59.6179L38.8125 57.8419V43.2979L36.3165 42.4579L36.7965 41.4979H44.0925V42.2419L41.8125 44.0179V58.5379L44.3325 59.4019L43.8525 60.3619ZM54.2588 60.3619H46.9628V59.6179L49.2188 57.8419V43.2979L46.7228 42.4579L47.2028 41.4979H54.4988V42.2419L52.2188 44.0179V58.5379L54.7388 59.4019L54.2588 60.3619ZM64.665 60.3619H57.369V59.6179L59.625 57.8419V43.2979L57.129 42.4579L57.609 41.4979H64.905V42.2419L62.625 44.0179V58.5379L65.145 59.4019L64.665 60.3619Z" fill="black"/>
</svg>
